<?xml version="1.0" encoding="UTF-8"?>
<svg id="Capa_2" data-name="Capa 2" xmlns="http://www.w3.org/2000/svg" viewBox="0 0 190.36 190.36">
  <defs>
    <style>
      .cls-1 {
        fill: #e6816b;
        stroke-width: 0px;
      }
    </style>
  </defs>
  <g id="Capa_1-2" data-name="Capa 1">
    <g>
      <path class="cls-1" d="m190.19,54.99c.22-.27.18-.47.16-.56C183.59,22.89,155.3,0,123.07,0H2.36c-.39,0-.65.2-.79.37l-.54.65-.65.54c-.14.12-.38.38-.38.79v120.71c0,32.23,22.89,60.53,54.44,67.28.09.03.28.06.56-.16.14-.12.39-.38.39-.8v-122.08c0-.15,0-.3-.01-.45l-.15-2.8c-.26-4.98,3.85-9.09,8.83-8.83l2.76.15c.12,0,.32.01.44.01h122.14c.42,0,.68-.24.8-.39Z"/>
      <path class="cls-1" d="m68.11,106.44c0,18.22,14.82,33.04,33.04,33.04s33.05-14.82,33.05-33.04-14.82-33.05-33.05-33.05-33.04,14.82-33.04,33.05Z"/>
    </g>
  </g>
</svg>