<?xml version="1.0" encoding="UTF-8"?>
<svg id="Capa_2" data-name="Capa 2" xmlns="http://www.w3.org/2000/svg" viewBox="0 0 442.18 71.51">
  <defs>
    <style>
      .cls-1 {
        fill: #0062aa;
      }

      .cls-1, .cls-2 {
        stroke-width: 0px;
      }

      .cls-2 {
        fill: #e6816b;
      }
    </style>
  </defs>
  <g id="Capa_1-2" data-name="Capa 1">
    <path class="cls-2" d="m43.69,5.58v9.2c0,1.07-.87,1.95-1.95,1.95h-23.45c-1.07,0-1.95.87-1.95,1.95v10.26c0,1.07.87,1.95,1.95,1.95h16.57c1.07,0,1.95.87,1.95,1.95v8.82c0,1.07-.87,1.95-1.95,1.95h-16.57c-1.07,0-1.95.87-1.95,1.95v23.26c0,1.07-.87,1.95-1.95,1.95H1.95c-1.07,0-1.95-.87-1.95-1.95V5.58c0-1.07.87-1.95,1.95-1.95h39.8c1.07,0,1.95.87,1.95,1.95Z"/>
    <path class="cls-2" d="m50.18,29.54c2.07-4.14,4.89-7.33,8.46-9.56,3.57-2.23,7.55-3.35,11.95-3.35,3.76,0,7.06.76,9.89,2.29,1.24.67,2.35,1.43,3.34,2.28,1.26,1.08,3.21.19,3.21-1.47v-.39c0-1.07.87-1.95,1.95-1.95h12.45c1.07,0,1.95.87,1.95,1.95v49.45c0,1.07-.87,1.95-1.95,1.95h-12.45c-1.07,0-1.95-.87-1.95-1.95v-.46c0-1.66-1.94-2.56-3.2-1.48-1.02.88-2.17,1.66-3.44,2.35-2.84,1.53-6.13,2.29-9.89,2.29-4.33,0-8.29-1.13-11.85-3.39-3.57-2.26-6.39-5.48-8.46-9.66-2.07-4.17-3.11-9-3.11-14.48s1.04-10.29,3.11-14.44Zm33.46,4.88c-2.96-3.08-6.75-4.15-11.39-3.21-.13.03-.26.07-.39.11-5.44,2.11-8.15,6.33-8.15,12.65,0,4.08,1.13,7.31,3.39,9.7,2.26,2.39,5.02,3.58,8.27,3.58s6.01-1.18,8.27-3.54c2.26-2.36,3.39-5.58,3.39-9.66s-1.13-7.3-3.39-9.65Z"/>
    <path class="cls-2" d="m199.12,22.85c3.92,4.01,5.88,9.59,5.88,16.73v29.22c0,1.07-.87,1.95-1.95,1.95h-12.36c-1.07,0-1.95-.87-1.95-1.95v-27.02c0-3.44-.91-6.1-2.72-7.98-1.82-1.88-4.32-2.82-7.5-2.82s-5.69.94-7.5,2.82c-1.82,1.88-2.72,4.54-2.72,7.98v27.02c0,1.07-.87,1.95-1.95,1.95h-12.36c-1.07,0-1.95-.87-1.95-1.95v-27.02c0-3.44-.91-6.1-2.72-7.98-1.82-1.88-4.32-2.82-7.5-2.82s-5.69.94-7.5,2.82c-1.82,1.88-2.72,4.54-2.72,7.98v27.02c0,1.07-.87,1.95-1.95,1.95h-12.45c-1.07,0-1.95-.87-1.95-1.95V19.35c0-1.07.87-1.95,1.95-1.95h12.45c1.07,0,1.95.87,1.95,1.95h0c0,1.61,1.86,2.54,3.13,1.54,1.02-.8,2.14-1.5,3.37-2.1,2.68-1.31,5.7-1.96,9.08-1.96,4.01,0,7.6.86,10.75,2.58,2.38,1.3,4.36,3.01,5.96,5.14.74.99,2.22,1.01,3.01.06,1.63-1.97,3.62-3.63,5.98-5,3.19-1.85,6.66-2.77,10.42-2.77,6.63,0,11.9,2.01,15.82,6.02Z"/>
    <path class="cls-1" d="m216.32,29.54c2.07-4.14,4.89-7.33,8.46-9.56,3.57-2.23,7.55-3.35,11.95-3.35,3.5,0,6.71.73,9.61,2.2,1.36.69,2.58,1.49,3.67,2.4,1.26,1.05,3.17.13,3.17-1.51V1.95c0-1.07.87-1.95,1.95-1.95h12.45c1.07,0,1.95.87,1.95,1.95v66.85c0,1.07-.87,1.95-1.95,1.95h-12.45c-1.07,0-1.95-.87-1.95-1.95v-.41c0-1.67-1.96-2.56-3.22-1.46-.99.86-2.1,1.62-3.33,2.29-2.84,1.53-6.13,2.29-9.89,2.29-4.4,0-8.38-1.13-11.95-3.39-3.57-2.26-6.39-5.48-8.46-9.66-2.07-4.17-3.11-9-3.11-14.48s1.04-10.29,3.11-14.44Zm33.46,4.88c-2.96-3.08-6.75-4.15-11.39-3.21-.13.03-.26.07-.39.11-5.44,2.11-8.15,6.33-8.15,12.65,0,4.08,1.13,7.31,3.39,9.7,2.26,2.39,5.02,3.58,8.27,3.58s6.01-1.18,8.27-3.54c2.26-2.36,3.39-5.58,3.39-9.66s-1.13-7.3-3.39-9.65Z"/>
    <path class="cls-1" d="m329.6,47.99h-32.97c-1.25,0-2.18,1.16-1.9,2.38.5,2.17,1.45,3.91,2.85,5.22,1.88,1.75,4.19,2.63,6.93,2.63,3.69,0,6.36-1.41,8.01-4.22.35-.59.98-.94,1.66-.94h13.58c1.38,0,2.3,1.39,1.81,2.68-.94,2.45-2.26,4.71-3.98,6.78-2.33,2.8-5.24,5-8.75,6.6-3.51,1.59-7.42,2.39-11.76,2.39-5.23,0-9.88-1.11-13.96-3.35-4.08-2.23-7.27-5.42-9.56-9.56-2.29-4.14-3.44-8.99-3.44-14.53s1.13-10.39,3.39-14.53c2.26-4.14,5.43-7.33,9.51-9.56,4.08-2.23,8.76-3.35,14.05-3.35s9.75,1.08,13.77,3.25c4.02,2.17,7.15,5.26,9.42,9.27,2.26,4.01,3.39,8.7,3.39,14.05,0,.96-.04,1.94-.11,2.95s-.92,1.83-1.95,1.83Zm-16.83-9.08c1.22,0,2.18-1.12,1.91-2.31-.4-1.75-1.27-3.21-2.62-4.38-1.91-1.66-4.3-2.49-7.17-2.49s-5.05.8-6.93,2.39c-1.29,1.09-2.24,2.5-2.86,4.23-.45,1.25.53,2.56,1.85,2.56h15.82Z"/>
    <path class="cls-1" d="m349.54,69.12c-3.63-1.59-6.5-3.78-8.6-6.55-1.6-2.11-2.67-4.42-3.2-6.93-.26-1.23.64-2.39,1.9-2.39h12.28c.85,0,1.65.51,1.9,1.32.39,1.26,1.17,2.31,2.31,3.17,1.53,1.15,3.41,1.72,5.64,1.72,2.04,0,3.62-.4,4.73-1.2,1.11-.8,1.67-1.83,1.67-3.11,0-1.53-.8-2.66-2.39-3.39-1.6-.73-4.17-1.55-7.74-2.44-3.82-.89-7.01-1.83-9.56-2.82-2.55-.99-4.75-2.55-6.6-4.68-1.85-2.13-2.77-5.02-2.77-8.65,0-3.06.84-5.85,2.53-8.36,1.69-2.52,4.17-4.51,7.46-5.97,3.28-1.47,7.18-2.2,11.71-2.2,6.69,0,11.97,1.66,15.82,4.97,3.28,2.82,5.37,6.42,6.28,10.81.25,1.22-.65,2.38-1.9,2.38h-11.24c-.84,0-1.64-.51-1.9-1.31-.4-1.24-1.11-2.27-2.14-3.08-1.37-1.08-3.17-1.62-5.4-1.62-1.91,0-3.38.37-4.4,1.1-1.02.73-1.53,1.74-1.53,3.01,0,1.53.81,2.68,2.44,3.44s4.16,1.53,7.6,2.29c3.95,1.02,7.17,2.02,9.66,3.01,2.49.99,4.67,2.58,6.55,4.78,1.88,2.2,2.85,5.15,2.92,8.84,0,3.12-.88,5.91-2.63,8.36-1.75,2.45-4.27,4.38-7.55,5.78-3.28,1.4-7.09,2.1-11.42,2.1-4.65,0-8.8-.8-12.43-2.39Z"/>
    <path class="cls-1" d="m393.75,29.54c2.26-4.14,5.42-7.33,9.46-9.56,4.05-2.23,8.68-3.35,13.91-3.35,6.69,0,12.28,1.75,16.78,5.26,3.89,3.04,6.62,7.15,8.2,12.33.38,1.24-.58,2.48-1.87,2.48h-13.59c-.75,0-1.43-.43-1.75-1.11-1.56-3.34-4.25-5.01-8.05-5.01-3,0-5.39,1.16-7.17,3.49-1.79,2.33-2.68,5.66-2.68,9.99s.89,7.66,2.68,9.99c1.78,2.33,4.17,3.49,7.17,3.49,3.81,0,6.49-1.67,8.05-5.01.32-.68,1-1.11,1.75-1.11h13.57c1.3,0,2.26,1.25,1.87,2.49-1.58,5.07-4.32,9.15-8.23,12.23-4.53,3.57-10.1,5.35-16.73,5.35-5.23,0-9.86-1.11-13.91-3.35-4.05-2.23-7.2-5.42-9.46-9.56-2.26-4.14-3.39-8.99-3.39-14.53s1.13-10.39,3.39-14.53Z"/>
  </g>
</svg>