<?xml version="1.0" encoding="UTF-8"?>
<svg id="Capa_2" data-name="Capa 2" xmlns="http://www.w3.org/2000/svg" viewBox="0 0 91.76 91.76">
  <defs>
    <style>
      .cls-1 {
        fill: #0062aa;
      }

      .cls-1, .cls-2, .cls-3 {
        stroke-width: 0px;
      }

      .cls-2 {
        fill: #fff;
      }

      .cls-3 {
        fill: #e6816b;
      }
    </style>
  </defs>
  <g id="Capa_1-2" data-name="Capa 1">
    <circle class="cls-3" cx="45.88" cy="45.88" r="45.88"/>
    <g>
      <g>
        <g>
          <path class="cls-1" d="m27.29,61.65c.54-1.39,8.6,3.75,11.36-.73.73-1.19,2.27-1.83,2.51-1.34.76,1.59-3.02,1.72-4.27,10.74-.71,5.08,1.04,7.91,2.77,9.03.63.41,1.25.48,1.74.49,4.7.11,10.74,1.24,10.74,1.26,0,.04-16.76-2.3-24.44-.73,0,0-.57.22-.68-.11-.23-.68,3.81-.92,5.21-5.48,1.18-3.83-2.81-8.71-3.37-9.37-2-2.38-1.81-3.14-1.57-3.77Z"/>
          <path class="cls-1" d="m30.51,52.9c.81-2.08,16.74,6.04,20.18-1.05,1.87-3.86,5.1-5.3,5.29-4.5.11.45-6.05,5.07-7.93,18.58-1.06,7.61,1.56,11.84,4.14,13.51.94.61,1.88.72,2.6.74,7.04.16,8.51,3.03,8.48,3.03-4.44.16-21.8-.76-33.24-.57,0,0-1.34-2.19-2.68-2.19-1.07,0,11.63-1,13.73-7.84,1.76-5.74-4.2-13.03-5.05-14.03-2.99-3.56-5.88-4.74-5.52-5.68Z"/>
          <path class="cls-1" d="m48.93,59.09c1.31,1.09,7.33,4.74,12.45.96,1.97-1.46,3.69-.15,4.01.51.18.37-4.62-.05-6.14,10.86-.85,6.14,1.26,9.56,3.34,10.91.76.49-.78.97-.54,1.03,1.02.28-8.06-1.61-17.35.29,0,0,.13-.54,0-.93-.28-.82,6.77-.55,8.91-5.91.68-1.71-1.15-8.04-4.07-11.33-2.49-2.81-1.23-6.91-.61-6.4Z"/>
          <circle class="cls-1" cx="32.98" cy="59.41" r="1.99"/>
          <circle class="cls-1" cx="55.98" cy="58.16" r="2.51"/>
          <circle class="cls-1" cx="44.06" cy="50.24" r="2.89"/>
        </g>
        <g>
          <path class="cls-1" d="m40.81,35.17c.04-.62.11-1.22.23-1.79-3.62-2.67-4.72-6.85-2.9-10.81-2.14-1.25-4.38-2.31-6.64-3.34-.22-.1-.46-.18-.76-.29-.05,3.77-1.09,7.29-1.54,10.9-.98,7.8,3.52,13.99,11.21,15.49.83.16,1.65.36,2.57.57-1.25-2.23-2.61-4.35-3.62-6.66-1.01-2.32-1.94-4.66-2.36-7.17.47-.06.67.21.85.57.99,2,2.03,3.97,3.15,5.9-.19-1.09-.26-2.21-.19-3.36Z"/>
          <path class="cls-1" d="m41.44,31.82c.43-1.33,1.07-2.54,1.88-3.64.14-1.49.34-2.97.83-4.4.28.11.32.32.31.58-.03.83-.05,1.67-.05,2.5.93-1.01,2.02-1.93,3.23-2.77.63-.44,1.27-.85,1.93-1.24-.22-.84-.55-1.67-.96-2.49-1-1.98-2.3-3.76-3.62-5.53-.09-.13-.21-.24-.34-.4-.39.69-.83,1.34-1.29,1.96-.95,1.27-2.01,2.45-2.92,3.73-2.8,3.91-2.35,8.5,1.03,11.7Z"/>
          <path class="cls-1" d="m60.35,29.83c-.45-3.61-1.5-7.13-1.54-10.9-.3.12-.54.19-.76.29-.2.09-.4.18-.6.28-2.91,1.34-5.8,2.75-8.44,4.59-3.88,2.7-6.51,6.2-6.82,11.08-.18,2.92.54,5.64,1.87,8.27.19.37.39.74.6,1.1.04-.06.08-.11.12-.17.29-.4.57-.81.85-1.21,1.76-2.57,3.32-5.22,4.75-7.93.45-.86.89-1.73,1.32-2.6.18-.36.38-.63.85-.57-.42,2.51-1.35,4.85-2.36,7.17-.95,2.18-2.22,4.2-3.41,6.3-.07.12-.14.24-.2.36.91-.2,1.74-.4,2.57-.57,7.69-1.5,12.19-7.68,11.21-15.49Z"/>
        </g>
      </g>
      <path class="cls-2" d="m76.55,19.68C55.33,1.07,21.68,9.52,14.57,37.32c-2.6,10.25-.26,21.62,6.2,30.02,14.42,19.03,42.62,18.89,58.51,1.4-8.18,14.92-26.93,22.16-43.39,17.8C13.37,80.79-.04,57.48,5.97,35.11c3.28-12.82,13.12-23.66,25.47-28.31,15.83-6.08,35.4-1.06,45.11,12.88h0Z"/>
    </g>
  </g>
</svg>