<?xml version="1.0" encoding="UTF-8"?>
<svg id="Capa_2" data-name="Capa 2" xmlns="http://www.w3.org/2000/svg" viewBox="0 0 656.17 200.56">
  <defs>
    <style>
      .cls-1 {
        fill: #0e67a4;
      }

      .cls-1, .cls-2 {
        stroke-width: 0px;
      }

      .cls-2 {
        fill: #e6816b;
      }
    </style>
  </defs>
  <g id="Capa_1-2" data-name="Capa 1">
    <g>
      <path class="cls-1" d="m69.65,140.31c-26.86-3.11-46.41-12.52-57.84-27.54C-1.3,95.57-3.73,71.03,5.71,40.23c30.95,4.55,59.36,20.56,65.94,55.62,2.33,12.34,1.93,27.06-2,44.46Z"/>
      <path class="cls-1" d="m184.83,31.47c-69.86,7.26-116.93,44.37-106.21,139.47,97.3-3.83,122.93-65.68,106.21-139.47Z"/>
      <path class="cls-2" d="m82.41,80.46c28.25-26.77,27.96-59.81-.51-80.46-23.83,22.42-33.78,53.43.51,80.46Z"/>
    </g>
    <g>
      <path class="cls-2" d="m330.66,16.16v7.55h-19.38v63.53h-9.28V23.71h-19.48v-7.55h48.13Z"/>
      <path class="cls-2" d="m352.23,32.99c3.02-1.77,6.71-2.65,11.07-2.65v9.59h-2.45c-10.4,0-15.6,5.64-15.6,16.93v30.39h-9.28V31.36h9.28v9.08c1.63-3.19,3.96-5.68,6.99-7.44Z"/>
      <path class="cls-2" d="m424.68,62.77h-44.67c.34,5.51,2.23,9.81,5.66,12.9,3.43,3.09,7.6,4.64,12.49,4.64,4.01,0,7.36-.93,10.04-2.8,2.68-1.87,4.57-4.37,5.66-7.5h9.99c-1.5,5.37-4.49,9.74-8.97,13.1-4.49,3.37-10.06,5.05-16.72,5.05-5.3,0-10.05-1.19-14.23-3.57-4.18-2.38-7.46-5.76-9.84-10.15-2.38-4.38-3.57-9.47-3.57-15.25s1.16-10.84,3.47-15.2c2.31-4.35,5.56-7.7,9.74-10.04s8.99-3.52,14.43-3.52,9.99,1.16,14.07,3.47c4.08,2.31,7.22,5.49,9.43,9.54,2.21,4.05,3.31,8.62,3.31,13.72,0,1.77-.1,3.64-.31,5.61Zm-11.63-16.67c-1.56-2.55-3.69-4.49-6.37-5.81-2.69-1.33-5.66-1.99-8.92-1.99-4.69,0-8.69,1.5-11.98,4.49-3.3,2.99-5.19,7.14-5.66,12.44h35.29c0-3.53-.78-6.58-2.35-9.13Z"/>
      <path class="cls-2" d="m487.91,62.77h-44.67c.34,5.51,2.23,9.81,5.66,12.9,3.43,3.09,7.6,4.64,12.49,4.64,4.01,0,7.36-.93,10.04-2.8,2.68-1.87,4.57-4.37,5.66-7.5h9.99c-1.5,5.37-4.49,9.74-8.97,13.1-4.49,3.37-10.06,5.05-16.72,5.05-5.3,0-10.05-1.19-14.23-3.57-4.18-2.38-7.46-5.76-9.84-10.15-2.38-4.38-3.57-9.47-3.57-15.25s1.16-10.84,3.47-15.2c2.31-4.35,5.56-7.7,9.74-10.04s8.99-3.52,14.43-3.52,9.99,1.16,14.07,3.47c4.08,2.31,7.22,5.49,9.43,9.54,2.21,4.05,3.31,8.62,3.31,13.72,0,1.77-.1,3.64-.31,5.61Zm-11.63-16.67c-1.56-2.55-3.69-4.49-6.37-5.81-2.69-1.33-5.66-1.99-8.92-1.99-4.69,0-8.69,1.5-11.98,4.49-3.3,2.99-5.19,7.14-5.66,12.44h35.29c0-3.53-.78-6.58-2.35-9.13Z"/>
    </g>
    <g>
      <path class="cls-1" d="m273.25,74.96v17.8h-37.15v19.22h27.8v17.28h-27.8v36.89h-22.21v-91.18h59.36Z"/>
      <path class="cls-1" d="m279.55,110.16c2.81-5.63,6.64-9.96,11.5-12.99,4.85-3.03,10.26-4.55,16.24-4.55,5.11,0,9.59,1.04,13.44,3.12,3.85,2.08,6.82,4.81,8.9,8.18v-10.26h22.21v72.48h-22.21v-10.26c-2.17,3.38-5.17,6.1-9.03,8.18-3.85,2.08-8.33,3.12-13.44,3.12-5.89,0-11.26-1.54-16.11-4.61-4.85-3.07-8.68-7.45-11.5-13.12-2.81-5.67-4.22-12.23-4.22-19.68s1.41-13.98,4.22-19.61Zm45.46,6.62c-3.08-3.2-6.82-4.81-11.24-4.81s-8.16,1.58-11.24,4.74c-3.08,3.16-4.61,7.51-4.61,13.05s1.54,9.94,4.61,13.18c3.07,3.25,6.82,4.87,11.24,4.87s8.16-1.6,11.24-4.81c3.07-3.2,4.61-7.58,4.61-13.12s-1.54-9.91-4.61-13.12Z"/>
      <path class="cls-1" d="m481.92,101.07c5.33,5.46,7.99,13.03,7.99,22.73v42.34h-22.08v-39.36c0-4.68-1.23-8.29-3.7-10.85-2.47-2.55-5.87-3.83-10.2-3.83s-7.73,1.28-10.2,3.83c-2.47,2.56-3.7,6.17-3.7,10.85v39.36h-22.08v-39.36c0-4.68-1.23-8.29-3.7-10.85-2.47-2.55-5.87-3.83-10.2-3.83s-7.73,1.28-10.2,3.83c-2.47,2.56-3.7,6.17-3.7,10.85v39.36h-22.21v-72.48h22.21v9.09c2.25-3.03,5.2-5.43,8.83-7.21,3.64-1.77,7.75-2.66,12.34-2.66,5.46,0,10.33,1.17,14.61,3.51,4.29,2.34,7.64,5.67,10.07,10,2.51-3.98,5.93-7.23,10.26-9.74,4.33-2.51,9.05-3.77,14.16-3.77,9,0,16.17,2.73,21.5,8.18Z"/>
      <path class="cls-1" d="m507.12,82.69c-2.47-2.29-3.7-5.13-3.7-8.51s1.23-6.34,3.7-8.64c2.47-2.29,5.65-3.44,9.55-3.44s6.95,1.15,9.42,3.44c2.47,2.3,3.7,5.18,3.7,8.64s-1.23,6.21-3.7,8.51c-2.47,2.3-5.61,3.44-9.42,3.44s-7.08-1.15-9.55-3.44Zm20.59,10.98v72.48h-22.21v-72.48h22.21Z"/>
      <path class="cls-1" d="m566.02,70.02v96.12h-22.21v-96.12h22.21Z"/>
      <path class="cls-1" d="m656.17,93.66l-45.46,106.9h-23.9l16.63-36.89-29.49-70.01h24.81l16.76,45.33,16.63-45.33h24.03Z"/>
    </g>
  </g>
</svg>