<?xml version="1.0" encoding="UTF-8" standalone="no"?>
<svg
   id="Capa_2"
   data-name="Capa 2"
   viewBox="0 0 291.53 83.53"
   version="1.1"
   sodipodi:docname="LogoPrincipal.svg"
   inkscape:version="1.3.2 (1:1.3.2+202311252150+091e20ef0f)"
   xmlns:inkscape="http://www.inkscape.org/namespaces/inkscape"
   xmlns:sodipodi="http://sodipodi.sourceforge.net/DTD/sodipodi-0.dtd"
   xmlns="http://www.w3.org/2000/svg"
   xmlns:svg="http://www.w3.org/2000/svg">
  <sodipodi:namedview
     id="namedview12"
     pagecolor="#ffffff"
     bordercolor="#666666"
     borderopacity="1.0"
     inkscape:showpageshadow="2"
     inkscape:pageopacity="0.0"
     inkscape:pagecheckerboard="0"
     inkscape:deskcolor="#d1d1d1"
     inkscape:zoom="6.064556"
     inkscape:cx="145.765"
     inkscape:cy="41.717811"
     inkscape:window-width="1920"
     inkscape:window-height="1016"
     inkscape:window-x="0"
     inkscape:window-y="0"
     inkscape:window-maximized="1"
     inkscape:current-layer="Capa_2" />
  <defs
     id="defs1">
    <style
       id="style1">
      .cls-1 {
        fill: #0062aa;
      }

      .cls-1, .cls-2 {
        stroke-width: 0px;
      }

      .cls-2 {
        fill: #e6816b;
      }
    </style>
  </defs>
  <g
     id="Capa_1-2"
     data-name="Capa 1">
    <g
       id="g7">
      <path
         class="cls-1"
         d="m100.08,25.47v6.31h-13.18v6.82h9.86v6.13h-9.86v13.09h-7.88V25.47h21.06Z"
         id="path1" />
      <path
         class="cls-1"
         d="m102.32,37.95c1-2,2.36-3.53,4.08-4.61,1.72-1.08,3.64-1.61,5.76-1.61,1.81,0,3.4.37,4.77,1.11,1.37.74,2.42,1.7,3.16,2.9v-3.64h7.88v25.71h-7.88v-3.64c-.77,1.2-1.84,2.17-3.2,2.9-1.37.74-2.96,1.11-4.77,1.11-2.09,0-3.99-.54-5.71-1.63-1.72-1.09-3.08-2.64-4.08-4.65-1-2.01-1.5-4.34-1.5-6.98s.5-4.96,1.5-6.96Zm16.13,2.35c-1.09-1.14-2.42-1.71-3.99-1.71s-2.9.56-3.99,1.68c-1.09,1.12-1.64,2.67-1.64,4.63s.54,3.53,1.64,4.68c1.09,1.15,2.42,1.73,3.99,1.73s2.89-.57,3.99-1.7c1.09-1.14,1.64-2.69,1.64-4.65s-.55-3.52-1.64-4.65Z"
         id="path2" />
      <path
         class="cls-1"
         d="m174.1,34.73c1.89,1.94,2.83,4.62,2.83,8.06v15.02h-7.83v-13.96c0-1.66-.44-2.94-1.31-3.85-.88-.91-2.08-1.36-3.62-1.36s-2.74.45-3.62,1.36c-.88.91-1.31,2.19-1.31,3.85v13.96h-7.83v-13.96c0-1.66-.44-2.94-1.31-3.85-.88-.91-2.08-1.36-3.62-1.36s-2.74.45-3.62,1.36c-.88.91-1.31,2.19-1.31,3.85v13.96h-7.88v-25.71h7.88v3.22c.8-1.07,1.84-1.93,3.13-2.56s2.75-.94,4.38-.94c1.94,0,3.66.41,5.18,1.24,1.52.83,2.71,2.01,3.57,3.55.89-1.41,2.1-2.56,3.64-3.46,1.54-.89,3.21-1.34,5.02-1.34,3.19,0,5.74.97,7.62,2.9Z"
         id="path3" />
      <path
         class="cls-2"
         d="m182.4,37.95c1-2,2.36-3.53,4.08-4.61,1.72-1.08,3.64-1.61,5.76-1.61,1.69,0,3.23.35,4.63,1.06,1.4.71,2.5,1.66,3.29,2.86v-11.93h7.88v34.1h-7.88v-3.69c-.74,1.23-1.79,2.21-3.16,2.95-1.37.74-2.96,1.11-4.77,1.11-2.12,0-4.04-.54-5.76-1.63-1.72-1.09-3.08-2.64-4.08-4.65-1-2.01-1.5-4.34-1.5-6.98s.5-4.96,1.5-6.96Zm16.13,2.35c-1.09-1.14-2.42-1.71-3.99-1.71s-2.9.56-3.99,1.68c-1.09,1.12-1.64,2.67-1.64,4.63s.54,3.53,1.64,4.68c1.09,1.15,2.42,1.73,3.99,1.73s2.89-.57,3.99-1.7c1.09-1.14,1.64-2.69,1.64-4.65s-.55-3.52-1.64-4.65Z"
         id="path4" />
      <path
         class="cls-2"
         d="m237.85,46.85h-17.83c.12,1.6.64,2.82,1.54,3.66.91.84,2.02,1.27,3.34,1.27,1.97,0,3.33-.83,4.1-2.49h8.39c-.43,1.69-1.21,3.21-2.33,4.56-1.12,1.35-2.53,2.41-4.22,3.18-1.69.77-3.58,1.15-5.67,1.15-2.52,0-4.76-.54-6.73-1.61-1.97-1.08-3.5-2.61-4.61-4.61-1.11-2-1.66-4.33-1.66-7s.54-5.01,1.64-7c1.09-2,2.62-3.53,4.58-4.61,1.96-1.08,4.22-1.61,6.77-1.61s4.7.52,6.63,1.57c1.94,1.04,3.45,2.53,4.54,4.47,1.09,1.94,1.64,4.19,1.64,6.77,0,.74-.05,1.5-.14,2.3Zm-7.92-4.38c0-1.35-.46-2.43-1.38-3.23-.92-.8-2.07-1.2-3.46-1.2s-2.43.38-3.34,1.15-1.47,1.86-1.68,3.27h9.86Z"
         id="path5" />
      <path
         class="cls-2"
         d="m246.6,57.03c-1.75-.77-3.13-1.82-4.15-3.16s-1.58-2.83-1.71-4.49h7.79c.09.89.51,1.61,1.24,2.17s1.64.83,2.72.83c.98,0,1.74-.19,2.28-.58.54-.38.81-.88.81-1.5,0-.74-.38-1.28-1.15-1.64-.77-.35-2.01-.74-3.73-1.17-1.84-.43-3.38-.88-4.61-1.36-1.23-.48-2.29-1.23-3.18-2.26s-1.34-2.42-1.34-4.17c0-1.47.41-2.82,1.22-4.03.81-1.21,2.01-2.17,3.59-2.88,1.58-.71,3.46-1.06,5.64-1.06,3.23,0,5.77.8,7.63,2.4,1.86,1.6,2.93,3.72,3.2,6.36h-7.28c-.12-.89-.51-1.6-1.17-2.12-.66-.52-1.53-.78-2.6-.78-.92,0-1.63.18-2.12.53-.49.35-.74.84-.74,1.45,0,.74.39,1.29,1.17,1.66.78.37,2,.74,3.66,1.11,1.9.49,3.46.98,4.65,1.45,1.2.48,2.25,1.24,3.16,2.3s1.38,2.48,1.41,4.26c0,1.5-.42,2.85-1.27,4.03s-2.06,2.11-3.64,2.79c-1.58.68-3.42,1.01-5.51,1.01-2.24,0-4.24-.38-5.99-1.15Z"
         id="path6" />
      <path
         class="cls-2"
         d="m267.91,37.95c1.09-2,2.61-3.53,4.56-4.61,1.95-1.08,4.18-1.61,6.7-1.61,3.23,0,5.92.85,8.09,2.53,2.17,1.69,3.59,4.07,4.26,7.14h-8.39c-.71-1.96-2.07-2.95-4.1-2.95-1.44,0-2.6.56-3.46,1.68-.86,1.12-1.29,2.73-1.29,4.81s.43,3.69,1.29,4.82c.86,1.12,2.01,1.68,3.46,1.68,2.03,0,3.39-.98,4.1-2.95h8.39c-.68,3.01-2.1,5.38-4.29,7.1-2.18,1.72-4.87,2.58-8.06,2.58-2.52,0-4.75-.54-6.7-1.61-1.95-1.08-3.47-2.61-4.56-4.61-1.09-2-1.64-4.33-1.64-7s.54-5.01,1.64-7Z"
         id="path7" />
    </g>
    <g
       id="g12">
      <g
         id="g11" />
    </g>
  </g>
  <path
     class="cls-2"
     d="M 73.56692,17.492808 C 53.404311,-2.0769691 19.417326,4.5322962 10.853213,31.693796 7.7090421,41.716855 9.4458179,53.099479 15.444694,61.762975 28.80991,81.382371 56.917793,82.73201 73.686704,66.238619 64.743284,80.588464 45.66865,86.771006 29.488653,81.580847 7.3596878,74.703639 -4.7678259,50.896391 2.4088664,29.054059 6.3515556,16.530197 16.742293,6.2987364 29.299004,2.3490554 45.409136,-2.8411033 64.633487,3.1727325 73.576907,17.492808 v 0 z"
     id="path1-56"
     style="fill:#e6816b;stroke-width:0px" />
  <path
     class="cls-1"
     d="m 38.816691,55.012862 c -5.799015,-0.744563 -10.019813,-2.997407 -12.487526,-6.593336 -2.830419,-4.117843 -3.355045,-9.99295 -1.31697,-17.366762 6.682035,1.089313 12.815683,4.922259 14.236291,13.315954 0.50304,2.954312 0.416684,6.47842 -0.431795,10.644144 z"
     id="path1-5"
     style="fill:#0e67a4;stroke-width:0px" />
  <path
     class="cls-1"
     d="M 63.683786,28.955537 C 48.601173,30.693649 38.438868,39.578134 40.753293,62.345973 61.760138,61.429036 67.293601,46.62156 63.683786,28.955537 Z"
     id="path2-2"
     style="fill:#0e67a4;stroke-width:0px" />
  <path
     class="cls-2"
     d="m 41.571544,40.684206 c 6.099116,-6.408991 6.036502,-14.319079 -0.110108,-19.262885 -5.144842,5.367561 -7.293025,12.791648 0.110108,19.262885 z"
     id="path3-9"
     style="fill:#e6816b;stroke-width:0px" />
</svg>
